<svg width="20" height="20" viewBox="0 0 20 20" fill="none" xmlns="http://www.w3.org/2000/svg">
<path d="M15.0979 20C14.0447 20 12.9357 19.7488 11.7894 19.2651C10.671 18.7907 9.54334 18.1395 8.44362 17.3488C7.35322 16.5488 6.30009 15.6558 5.30289 14.6791C4.315 13.6837 3.42032 12.6326 2.62815 11.5535C1.82665 10.4372 1.1836 9.32093 0.726934 8.24186C0.242311 7.08837 0 5.97209 0 4.92093C0 4.19535 0.130475 3.50698 0.382106 2.86512C0.643057 2.20465 1.06244 1.5907 1.63094 1.06047C2.34856 0.353488 3.16869 0 4.04473 0C4.4082 0 4.78099 0.0837209 5.09786 0.232558C5.46132 0.4 5.76887 0.651163 5.99254 0.986046L8.15471 4.02791C8.35042 4.29767 8.49953 4.55814 8.60205 4.8186C8.72321 5.09767 8.78844 5.37674 8.78844 5.64651C8.78844 6 8.68593 6.34419 8.49021 6.66977C8.35042 6.92093 8.13607 7.1907 7.8658 7.46047L7.23206 8.12093C7.24138 8.14884 7.2507 8.16744 7.26002 8.18605C7.37185 8.3814 7.59553 8.71628 8.02423 9.2186C8.48089 9.73954 8.9096 10.214 9.3383 10.6512C9.88816 11.1907 10.3448 11.6186 10.7735 11.9721C11.3048 12.4186 11.6496 12.6419 11.8546 12.7442L11.836 12.7907L12.5163 12.1209C12.8052 11.8326 13.0848 11.6186 13.3551 11.4791C13.8677 11.1628 14.52 11.107 15.1724 11.3767C15.4147 11.4791 15.6757 11.6186 15.9553 11.814L19.0494 14.0093C19.3942 14.2419 19.6459 14.5395 19.795 14.893C19.9348 15.2465 20 15.5721 20 15.8977C20 16.3442 19.8975 16.7907 19.7018 17.2093C19.5061 17.6279 19.2637 17.9907 18.9562 18.3256C18.425 18.9116 17.8472 19.3302 17.1761 19.6C16.5331 19.8605 15.8341 20 15.0979 20ZM4.04473 1.39535C3.53215 1.39535 3.05685 1.6186 2.60019 2.06512C2.17148 2.46512 1.87325 2.90233 1.68686 3.37674C1.49115 3.86047 1.39795 4.37209 1.39795 4.92093C1.39795 5.78605 1.60298 6.72558 2.01305 7.69302C2.43243 8.67907 3.01957 9.70233 3.76514 10.7256C4.51072 11.7488 5.35881 12.7442 6.29077 13.6837C7.22274 14.6047 8.22926 15.4605 9.26375 16.214C10.2703 16.9488 11.3048 17.5442 12.3299 17.9721C13.9236 18.6512 15.4147 18.8093 16.6449 18.2977C17.1202 18.1023 17.5396 17.8047 17.9217 17.3767C18.1361 17.1442 18.3038 16.893 18.4436 16.5953C18.5555 16.3628 18.6114 16.1209 18.6114 15.8791C18.6114 15.7302 18.5834 15.5814 18.5089 15.414C18.4809 15.3581 18.425 15.2558 18.2479 15.1349L15.1538 12.9395C14.9674 12.8093 14.7996 12.7163 14.6412 12.6512C14.4362 12.5674 14.3523 12.4837 14.0354 12.6791C13.849 12.7721 13.6813 12.9116 13.4949 13.0977L12.7866 13.7953C12.4231 14.1488 11.8639 14.2326 11.4352 14.0744L11.1836 13.9628C10.8015 13.7581 10.3541 13.4419 9.86021 13.0233C9.41286 12.6419 8.92824 12.1953 8.3411 11.6186C7.88444 11.1535 7.42777 10.6605 6.95247 10.1116C6.51445 9.6 6.19758 9.16279 6.00186 8.8L5.89003 8.52093C5.83411 8.30698 5.81547 8.18605 5.81547 8.05581C5.81547 7.72093 5.93663 7.42326 6.16962 7.1907L6.86859 6.46512C7.05499 6.27907 7.19478 6.10233 7.28798 5.94419C7.36253 5.82326 7.39049 5.72093 7.39049 5.62791C7.39049 5.55349 7.36254 5.44186 7.31594 5.33023C7.2507 5.1814 7.14818 5.01395 7.01771 4.83721L4.85555 1.78605C4.76235 1.65581 4.65051 1.56279 4.51072 1.49767C4.3616 1.43256 4.20317 1.39535 4.04473 1.39535ZM11.836 12.8L11.6869 13.4326L11.9385 12.7814C11.8919 12.7721 11.8546 12.7814 11.836 12.8Z" fill="#21AA93"/>
</svg>
