<svg width="28" height="24" viewBox="0 0 28 24" fill="none" xmlns="http://www.w3.org/2000/svg">
<path d="M14.0369 2C7.8205 2 2.77533 6.48 2.77533 12C2.77533 17.52 7.8205 22 14.0369 22H19.6676V20H14.0369C9.14936 20 5.02764 16.34 5.02764 12C5.02764 7.66 9.14936 4 14.0369 4C18.9244 4 23.0461 7.66 23.0461 12V13.43C23.0461 14.22 22.2465 15 21.3569 15C20.4672 15 19.6676 14.22 19.6676 13.43V12C19.6676 9.24 17.1451 7 14.0369 7C10.9287 7 8.4061 9.24 8.4061 12C8.4061 14.76 10.9287 17 14.0369 17C15.591 17 17.0099 16.44 18.0235 15.53C18.7555 16.42 20.0167 17 21.3569 17C23.5754 17 25.2984 15.4 25.2984 13.43V12C25.2984 6.48 20.2532 2 14.0369 2ZM14.0369 15C12.1675 15 10.6584 13.66 10.6584 12C10.6584 10.34 12.1675 9 14.0369 9C15.9063 9 17.4153 10.34 17.4153 12C17.4153 13.66 15.9063 15 14.0369 15Z" fill="#21AA93"/>
</svg>
