<svg width="28" height="24" viewBox="0 0 28 24" fill="none" xmlns="http://www.w3.org/2000/svg">
<path fill-rule="evenodd" clip-rule="evenodd" d="M14.0483 3.5H14.0288C11.6355 3.5 9.68621 5.194 9.67477 7.284V8.627H18.3978V7.301C18.3978 5.205 16.4462 3.5 14.0483 3.5ZM20.1147 7.301V8.898C22.1418 9.519 23.6092 11.188 23.6092 13.169V17.458C23.6092 19.963 21.2765 22 18.4092 22H18.376H14.5348C14.0609 22 13.6763 21.664 13.6763 21.25C13.6763 20.836 14.0609 20.5 14.5348 20.5H18.376C20.2967 20.5 21.8579 19.136 21.8579 17.458C21.8579 17.4214 21.8687 17.3883 21.8794 17.3552C21.884 17.3412 21.8885 17.3272 21.8923 17.313V13.169C21.8923 11.491 20.3299 10.127 18.4092 10.127H9.66447C7.74382 10.127 6.18144 11.491 6.18144 13.169V17.313C6.1851 17.3283 6.18981 17.3434 6.19452 17.3584C6.20457 17.3905 6.21464 17.4226 6.21464 17.458C6.21464 19.136 7.77702 20.5 9.69766 20.5C10.1715 20.5 10.5561 20.836 10.5561 21.25C10.5561 21.664 10.1715 22 9.69766 22C9.69366 22 9.68993 21.9995 9.68621 21.999C9.6825 21.9985 9.67877 21.998 9.67477 21.998C9.67305 21.998 9.67134 21.9985 9.66962 21.999C9.6679 21.9995 9.66618 22 9.66447 22C6.79724 22 4.46454 19.963 4.46454 17.458V13.169C4.46454 11.188 5.93077 9.519 7.95787 8.898V7.301C7.97275 4.363 10.6923 2 14.0254 2H14.0517C17.3928 2 20.1147 4.378 20.1147 7.301ZM14.8951 14.2028V16.4238C14.8951 16.8378 14.5105 17.1738 14.0366 17.1738C13.5627 17.1738 13.1782 16.8378 13.1782 16.4238V14.2028C13.1782 13.7888 13.5627 13.4528 14.0366 13.4528C14.5105 13.4528 14.8951 13.7888 14.8951 14.2028Z" fill="#21AA93"/>
</svg>
