<svg width="28" height="24" viewBox="0 0 28 24" fill="none" xmlns="http://www.w3.org/2000/svg">
<path fill-rule="evenodd" clip-rule="evenodd" d="M9.59796 7.35387C9.59796 5.19392 11.5891 3.43696 14.0368 3.43696C16.4846 3.43696 18.4757 5.19392 18.4757 7.35387C18.4757 9.51281 16.4846 11.2698 14.0368 11.2698C11.5891 11.2698 9.59796 9.51281 9.59796 7.35387ZM7.9695 7.35387C7.9695 10.3048 10.6915 12.7067 14.0368 12.7067C17.3822 12.7067 20.1031 10.3048 20.1031 7.35387C20.1031 4.40194 17.3822 2 14.0368 2C10.6915 2 7.9695 4.40194 7.9695 7.35387ZM12.8855 21.985C13.2628 21.995 13.647 22 14.0368 22C17.9046 22 23.0461 21.619 23.0461 18.3301C23.0461 14.6392 16.2648 14.6392 14.0368 14.6392C10.1691 14.6392 5.02762 15.0202 5.02762 18.3101C5.02762 19.2951 5.54664 20.624 8.01936 21.363C8.44659 21.493 8.90669 21.288 9.05174 20.913C9.19566 20.538 8.96788 20.131 8.54179 20.004C6.84986 19.4981 6.65495 18.7951 6.65495 18.3101C6.65495 16.8271 9.139 16.0751 14.0368 16.0751C18.9347 16.0751 21.4188 16.8341 21.4188 18.3301C21.4188 19.8121 18.9347 20.563 14.0368 20.563C13.6629 20.563 13.2946 20.559 12.9319 20.55C12.4968 20.553 12.1092 20.851 12.0967 21.247C12.0831 21.644 12.4367 21.975 12.8855 21.985Z" fill="#21AA93"/>
</svg>
